{"glyphs":{":":{"x_min":0,"x_max":367,"ha":367,"o":"m 80 68 q 80 100 103 123 q 125 146 158 146 q 190 146 213 123 q 235 100 235 68 q 235 36 213 13 q 190 -10 158 -10 q 125 -10 103 13 q 80 36 80 68 z m 142 445 q 142 478 164 500 q 187 523 219 523 q 251 523 274 500 q 297 478 297 445 q 297 413 274 390 q 251 368 219 368 q 187 368 164 390 q 142 413 142 445 z"},"$":{"x_min":0,"x_max":586,"ha":586,"o":"m 500 576 q 448 618 385 618 q 268 618 268 529 q 268 489 330 442 q 407 384 438 357 q 468 331 488 288 q 508 246 508 195 q 508 107 454 53 q 400 0 303 -12 l 289 -88 l 178 -88 l 192 -10 q 127 0 72 27 l 113 153 q 179 104 265 104 q 376 104 376 190 q 376 214 361 238 q 346 261 318 284 q 290 306 199 376 q 136 438 136 516 q 136 599 184 655 q 232 711 316 726 l 334 823 l 445 823 l 428 729 q 502 723 540 705 z"},"?":{"x_min":0,"x_max":397,"ha":397,"o":"m 148 203 l 77 203 q 76 210 73 230 q 69 250 69 261 q 69 326 122 385 l 214 471 q 243 499 258 526 q 272 553 272 579 q 272 632 204 632 q 149 632 104 597 l 62 680 q 118 728 231 728 q 303 728 347 689 q 390 650 390 583 q 390 539 372 497 q 353 455 319 426 l 235 353 q 186 310 169 285 q 148 252 148 219 z m 27 69 q 27 102 52 125 q 76 147 109 147 q 142 147 166 125 q 190 102 190 69 q 190 36 167 13 q 143 -10 109 -10 q 75 -10 51 13 q 27 36 27 69 z"},"<":{"x_min":0,"x_max":586,"ha":586,"o":"m 94 272 l 94 351 l 484 538 l 484 426 l 226 311 l 484 194 l 484 83 z"},"'":{"x_min":0,"x_max":301,"ha":301,"o":"m 232 530 l 134 530 l 160 716 l 287 716 z"},"=":{"x_min":0,"x_max":586,"ha":586,"o":"m 87 364 l 87 462 l 526 462 l 526 364 z m 87 159 l 87 257 l 526 257 l 526 159 z"},"a":{"x_min":0,"x_max":593,"ha":593,"o":"m 482 188 q 479 169 479 147 q 479 40 496 0 l 419 0 q 385 0 369 52 q 306 -10 213 -10 q 128 -10 81 38 q 35 86 35 171 q 35 320 125 427 q 215 533 352 533 q 484 533 543 508 z m 341 433 q 259 433 210 355 q 162 276 162 174 q 162 90 245 90 q 297 90 337 155 q 376 220 407 423 q 372 433 341 433 z"},"L":{"x_min":0,"x_max":528,"ha":528,"o":"m 476 0 l 24 0 l 156 715 l 284 715 l 173 111 l 496 111 z"},"3":{"x_min":0,"x_max":586,"ha":586,"o":"m 416 381 q 496 338 496 242 q 496 -10 199 -10 q 94 -10 25 63 l 89 173 q 145 102 215 102 q 282 102 323 139 q 365 177 365 239 q 365 327 226 327 l 246 435 q 398 435 398 544 q 398 616 311 616 q 261 616 212 577 l 148 656 q 219 728 333 728 q 422 728 478 682 q 533 636 533 557 q 533 504 501 456 q 469 408 416 381 z"},";":{"x_min":0,"x_max":367,"ha":367,"o":"m 111 -202 l 74 -153 q 151 -96 151 -24 q 151 3 123 25 q 95 47 95 72 q 95 105 123 126 q 148 145 182 145 q 217 145 244 116 q 269 87 269 52 q 269 -96 111 -202 z m 142 445 q 142 478 164 500 q 187 523 219 523 q 251 523 274 500 q 297 478 297 445 q 297 413 274 390 q 251 368 219 368 q 187 368 164 390 q 142 413 142 445 z"},"J":{"x_min":0,"x_max":499,"ha":499,"o":"m -1 164 l 110 164 q 109 102 163 102 q 204 102 231 115 q 258 129 272 156 q 285 184 300 269 l 382 715 l 508 715 l 426 268 q 395 100 331 45 q 267 -10 148 -10 q 79 -10 37 27 q -4 64 -4 128 q -4 143 -1 164 z"},"V":{"x_min":0,"x_max":683,"ha":683,"o":"m 329 -10 l 260 -10 l 116 715 l 252 715 l 337 241 l 588 715 l 730 715 z"},"\"":{"x_min":0,"x_max":391,"ha":391,"o":"m 377 530 l 280 530 l 305 716 l 432 716 z m 177 530 l 80 530 l 105 716 l 232 716 z"},"7":{"x_min":0,"x_max":586,"ha":586,"o":"m 229 0 l 73 0 q 173 195 452 597 l 121 597 l 143 718 l 642 718 l 642 660 q 386 316 229 0 z"},"S":{"x_min":0,"x_max":501,"ha":501,"o":"m 459 574 q 402 616 344 616 q 226 616 226 527 q 226 489 289 437 l 362 375 q 396 345 410 332 q 423 318 438 294 q 452 271 459 246 q 467 222 467 196 q 467 98 393 43 q 320 -12 203 -12 q 106 -12 21 29 l 62 155 q 127 105 214 105 q 266 105 301 128 q 335 150 335 191 q 335 231 272 280 l 196 341 q 161 370 148 382 q 136 395 122 418 q 108 440 102 464 q 95 488 95 514 q 95 612 160 670 q 226 728 332 728 q 367 728 421 719 q 476 711 498 701 z"},"}":{"x_min":0,"x_max":485,"ha":485,"o":"m 426 240 q 304 232 304 109 q 304 90 307 52 q 311 15 311 -4 q 311 -98 244 -152 q 178 -205 71 -205 l -17 -205 l 0 -106 q 73 -106 112 -95 q 150 -85 169 -54 q 187 -23 187 27 q 187 42 184 74 q 181 106 181 122 q 181 226 298 280 q 229 332 229 392 q 229 427 261 492 q 292 558 292 593 q 292 638 243 638 l 137 638 l 154 733 l 241 733 q 318 733 371 698 q 424 664 424 603 q 424 564 387 491 q 351 417 351 379 q 351 317 438 310 z"},"Z":{"x_min":0,"x_max":611,"ha":611,"o":"m 235 111 l 527 111 l 506 0 l 42 0 l 42 41 l 430 604 l 136 604 l 156 715 l 609 715 l 609 675 z"},"x":{"x_min":0,"x_max":576,"ha":576,"o":"m 369 263 l 521 0 l 372 0 l 286 163 l 146 0 l -4 0 l 224 273 l 85 523 l 228 523 l 310 364 l 436 523 l 590 523 z"},")":{"x_min":0,"x_max":367,"ha":367,"o":"m -5 -222 l -5 -135 q 84 -67 140 112 q 195 292 195 457 q 195 579 152 661 l 152 729 q 238 692 284 596 q 330 499 330 367 q 330 191 238 30 q 146 -131 -5 -222 z"},"&":{"x_min":0,"x_max":706,"ha":706,"o":"m 667 337 l 545 337 q 525 250 519 213 q 513 176 513 144 q 513 97 555 97 q 589 97 642 135 l 642 14 q 592 -10 518 -10 q 458 -10 424 21 q 347 -10 259 -10 q 168 -10 113 37 q 57 84 57 167 q 57 308 169 405 q 127 458 127 511 q 127 613 198 670 q 268 728 383 728 q 471 728 521 698 l 490 590 q 445 631 386 631 q 321 631 284 599 q 247 568 247 509 q 247 470 278 441 l 443 441 l 458 525 l 584 543 l 564 439 l 685 439 z m 250 337 q 185 270 185 188 q 185 97 297 97 q 353 97 387 114 q 387 136 392 163 l 424 337 z"},"_":{"x_min":0,"x_max":586,"ha":586,"o":"m -4 -163 l -4 -61 l 589 -61 l 589 -163 z"},"v":{"x_min":0,"x_max":552,"ha":552,"o":"m 250 -10 l 206 -10 l 45 523 l 173 523 l 261 206 l 445 523 l 586 523 z"},"O":{"x_min":0,"x_max":702,"ha":702,"o":"m 48 266 q 48 457 153 593 q 257 728 424 728 q 552 728 622 660 q 691 592 691 463 q 691 251 584 120 q 478 -12 293 -12 q 180 -12 114 64 q 48 141 48 266 z m 180 279 q 180 197 213 148 q 246 99 309 99 q 425 99 492 204 q 560 308 560 453 q 560 617 415 617 q 313 617 247 510 q 180 402 180 279 z"},"(":{"x_min":0,"x_max":367,"ha":367,"o":"m 242 -222 q 68 -93 68 144 q 68 319 160 490 q 251 661 394 735 l 394 662 q 202 460 202 54 q 202 -59 242 -135 z"},"C":{"x_min":0,"x_max":613,"ha":613,"o":"m 569 578 q 513 617 445 617 q 335 617 261 512 q 187 408 187 280 q 187 198 227 148 q 268 99 340 99 q 452 99 516 160 l 514 48 q 444 -12 314 -12 q 198 -12 126 64 q 55 141 55 263 q 55 460 165 594 q 274 728 451 728 q 538 728 604 699 z"},"W":{"x_min":0,"x_max":926,"ha":926,"o":"m 621 -10 l 570 -10 l 492 427 l 260 -10 l 209 -10 l 108 715 l 237 715 l 292 282 l 517 715 l 572 715 l 639 285 l 848 715 l 985 715 z"},"A":{"x_min":0,"x_max":614,"ha":614,"o":"m 448 0 l 426 146 l 170 146 l 86 0 l -46 0 l 388 725 l 434 725 l 581 0 z m 371 508 l 224 241 l 412 241 z"},"f":{"x_min":0,"x_max":410,"ha":410,"o":"m 454 621 q 414 638 386 638 q 315 638 289 523 l 409 523 l 397 425 l 274 425 l 196 -33 q 183 -108 127 -156 q 71 -205 -4 -205 l -30 -124 q 4 -116 32 -89 q 60 -62 66 -28 l 148 425 l 74 425 l 90 523 l 163 523 q 213 737 392 737 q 442 737 478 716 z"},"Q":{"x_min":0,"x_max":770,"ha":770,"o":"m 381 -9 q 345 -18 302 -18 q 184 -18 120 57 q 57 131 57 263 q 57 455 161 592 q 265 728 432 728 q 560 728 630 659 q 699 590 699 461 q 699 310 642 193 q 584 76 478 26 q 498 -16 548 -39 q 599 -62 656 -62 q 716 -62 768 -27 l 814 -103 q 752 -182 630 -182 q 548 -182 480 -135 q 412 -87 381 -9 z m 188 276 q 188 192 221 143 q 254 95 317 95 q 433 95 500 200 q 568 305 568 451 q 568 616 424 616 q 322 616 255 508 q 188 400 188 276 z"},"w":{"x_min":0,"x_max":773,"ha":773,"o":"m 520 -10 l 476 -10 l 384 292 l 188 -10 l 144 -10 l 41 523 l 165 523 l 217 235 l 396 523 l 440 523 l 526 231 l 677 523 l 807 523 z"},"-":{"x_min":0,"x_max":367,"ha":367,"o":"m 43 232 l 63 347 l 322 347 l 301 232 z"},"E":{"x_min":0,"x_max":593,"ha":593,"o":"m 592 604 l 262 604 l 232 439 l 469 439 l 449 333 l 212 333 l 172 111 l 497 111 l 476 0 l 21 0 l 152 715 l 613 715 z"},"s":{"x_min":0,"x_max":459,"ha":459,"o":"m 386 380 q 328 431 279 431 q 249 431 226 417 q 204 403 204 380 q 204 351 257 324 q 310 297 338 281 q 367 266 385 239 q 403 211 403 176 q 403 90 338 40 q 273 -10 173 -10 q 87 -10 5 39 l 69 149 q 130 92 189 92 q 226 92 250 110 q 274 129 274 161 q 274 187 229 211 q 183 235 147 255 q 112 274 94 303 q 76 332 76 366 q 76 442 136 488 q 197 533 286 533 q 346 533 443 492 z"},">":{"x_min":0,"x_max":586,"ha":586,"o":"m 129 83 l 129 194 l 387 311 l 129 426 l 129 538 l 520 351 l 520 272 z"},"l":{"x_min":0,"x_max":320,"ha":320,"o":"m 233 41 q 204 -5 146 -5 q 102 -5 76 24 q 51 53 51 99 q 51 158 74 270 l 172 737 l 293 737 l 193 250 q 171 146 171 102 q 171 74 189 57 q 207 41 233 41 z"},"8":{"x_min":0,"x_max":586,"ha":586,"o":"m 438 385 q 520 322 520 230 q 520 -10 245 -10 q 153 -10 95 37 q 38 83 38 165 q 38 243 78 304 q 119 366 190 400 q 129 453 129 533 q 129 618 200 673 q 271 728 367 728 q 447 728 502 686 q 556 643 556 573 q 556 517 523 466 q 490 414 438 385 z m 346 444 q 426 509 426 558 q 426 583 404 600 q 381 616 353 616 q 262 616 262 533 q 262 480 346 444 z m 305 334 q 245 319 206 277 q 167 235 167 181 q 167 146 194 124 q 220 102 259 102 q 318 102 353 135 q 387 168 387 227 q 387 292 305 334 z"},"\\":{"x_min":0,"x_max":478,"ha":478,"o":"m 347 0 l 83 718 l 189 718 l 453 0 z"},"e":{"x_min":0,"x_max":552,"ha":552,"o":"m 167 227 q 167 214 167 205 q 167 150 199 121 q 231 92 289 92 q 320 92 360 109 q 400 125 423 146 l 409 18 q 347 -10 257 -10 q 161 -10 101 51 q 41 112 41 219 q 41 354 127 443 q 214 533 354 533 q 437 533 488 498 q 539 463 539 398 q 539 310 463 259 q 386 209 274 209 q 220 209 167 227 z m 191 319 q 223 310 260 310 q 326 310 372 330 q 418 351 418 389 q 418 431 325 431 q 289 431 250 399 q 212 367 191 319 z"},"b":{"x_min":0,"x_max":593,"ha":593,"o":"m 253 -10 q 175 -10 139 40 l 100 0 l 10 0 q 57 120 74 215 l 167 737 l 286 737 l 245 503 q 291 533 356 533 q 454 533 511 467 q 564 405 564 305 q 564 175 474 83 q 383 -10 253 -10 z m 309 430 q 259 430 224 388 l 176 129 q 195 91 250 91 q 335 91 387 153 q 435 211 435 298 q 435 430 309 430 z"},"%":{"x_min":0,"x_max":732,"ha":732,"o":"m 97 501 q 97 597 150 662 q 204 728 290 728 q 412 728 412 597 q 412 505 359 440 q 307 375 223 375 q 97 375 97 501 z m 194 517 q 194 455 233 455 q 273 455 295 496 q 316 536 316 593 q 316 648 274 648 q 238 648 216 608 q 194 568 194 517 z m 151 -10 l 50 -10 l 631 728 l 732 728 z m 376 117 q 376 213 429 278 q 483 343 569 343 q 690 343 690 212 q 690 121 638 55 q 585 -10 502 -10 q 376 -10 376 117 z m 473 132 q 473 70 512 70 q 552 70 573 111 q 595 151 595 209 q 595 263 553 263 q 516 263 495 223 q 473 183 473 132 z"},"m":{"x_min":0,"x_max":830,"ha":830,"o":"m 806 343 l 742 0 l 617 0 l 679 330 q 682 346 682 363 q 682 431 610 431 q 584 431 555 414 q 525 396 510 375 l 440 0 l 315 0 l 385 369 q 386 374 386 380 q 386 431 308 431 q 285 431 255 414 q 226 396 208 374 l 138 0 l 14 0 l 84 378 q 87 391 87 419 q 87 467 73 513 l 193 534 q 199 509 204 487 q 263 533 351 533 q 455 533 498 477 q 560 533 654 533 q 811 533 811 390 q 811 369 806 343 z"},"#":{"x_min":0,"x_max":586,"ha":586,"o":"m 573 444 l 468 444 l 427 288 l 502 288 l 502 200 l 404 200 l 345 -10 l 250 -10 l 308 200 l 195 200 l 138 -10 l 42 -10 l 100 200 l 32 200 l 32 288 l 124 288 l 165 444 l 88 444 l 88 533 l 188 533 l 241 726 l 335 726 l 284 533 l 396 533 l 448 726 l 542 726 l 492 533 l 573 533 z m 375 444 l 260 444 l 219 288 l 333 288 z"},",":{"x_min":0,"x_max":367,"ha":367,"o":"m 111 -202 l 74 -153 q 151 -96 151 -24 q 151 3 123 25 q 95 47 95 72 q 95 104 121 125 q 146 145 182 145 q 217 145 243 117 q 269 88 269 52 q 269 -96 111 -202 z"},"n":{"x_min":0,"x_max":562,"ha":562,"o":"m 462 0 l 336 0 l 393 305 q 400 341 400 366 q 400 431 323 431 q 258 431 206 376 l 136 0 l 13 0 l 87 392 q 89 402 89 420 q 89 464 75 513 l 194 535 l 206 477 q 270 533 367 533 q 528 533 528 382 q 528 355 521 318 z"},"h":{"x_min":0,"x_max":562,"ha":562,"o":"m 527 320 l 467 0 l 342 0 l 403 325 q 406 340 406 356 q 406 430 333 430 q 267 430 214 374 l 145 0 l 21 0 l 153 737 l 275 737 l 235 491 q 300 533 372 533 q 447 533 490 491 q 533 449 533 374 q 533 349 527 320 z"},"z":{"x_min":0,"x_max":533,"ha":533,"o":"m 218 106 l 466 106 l 446 0 l 14 0 l 14 42 l 319 417 l 63 417 l 83 523 l 519 523 l 519 479 z"},"B":{"x_min":0,"x_max":590,"ha":590,"o":"m 469 399 q 506 383 531 338 q 555 292 555 241 q 555 118 468 56 q 381 -6 187 -6 q 123 -6 26 0 l 157 714 q 239 726 303 726 q 570 726 570 550 q 570 503 541 462 q 513 421 469 399 z m 268 615 l 237 440 q 266 439 290 439 q 359 439 401 469 q 442 498 442 554 q 442 618 329 618 q 306 618 268 615 z m 220 349 l 174 104 q 197 102 217 102 q 315 102 371 135 q 426 168 426 231 q 426 351 270 351 q 245 351 220 349 z"},"K":{"x_min":0,"x_max":650,"ha":650,"o":"m 398 401 l 576 0 l 433 0 l 299 306 l 197 194 l 161 0 l 34 0 l 166 715 l 292 715 l 233 390 l 530 715 l 681 715 z"},"R":{"x_min":0,"x_max":624,"ha":624,"o":"m 413 317 l 572 0 l 429 0 l 292 296 q 259 296 211 300 l 156 0 l 25 0 l 156 715 q 298 723 343 723 q 458 723 526 678 q 593 633 593 549 q 593 463 544 400 q 495 336 413 317 z m 267 605 l 230 405 q 259 402 281 402 q 466 402 466 520 q 466 569 430 590 q 395 610 313 610 q 306 610 267 605 z"},"T":{"x_min":0,"x_max":685,"ha":685,"o":"m 679 604 l 454 604 l 343 0 l 215 0 l 325 604 l 98 604 l 118 715 l 700 715 z"},"P":{"x_min":0,"x_max":583,"ha":583,"o":"m 202 263 l 154 0 l 24 0 l 159 714 q 261 725 314 725 q 598 725 598 512 q 598 392 512 323 q 426 254 289 254 q 245 254 202 263 z m 265 607 l 222 371 q 247 364 286 364 q 369 364 417 400 q 466 436 466 502 q 466 615 338 615 q 304 615 265 607 z"},"|":{"x_min":0,"x_max":586,"ha":586,"o":"m 247 -205 l 247 737 l 347 737 l 347 -205 z"},"t":{"x_min":0,"x_max":438,"ha":438,"o":"m 411 425 l 267 425 l 214 193 q 208 165 208 146 q 208 93 268 93 q 295 93 356 118 l 356 8 q 303 -10 212 -10 q 153 -10 117 27 q 81 64 81 124 q 81 144 85 163 l 144 425 l 83 425 l 104 523 l 165 523 l 186 630 l 325 681 l 289 523 l 432 523 z"},"M":{"x_min":0,"x_max":786,"ha":786,"o":"m 605 0 l 597 387 l 380 -10 l 335 -10 l 265 391 l 115 0 l -8 0 l 258 715 l 329 715 l 401 262 l 638 715 l 711 715 l 731 0 z"},"g":{"x_min":0,"x_max":535,"ha":535,"o":"m 486 432 q 497 408 497 374 q 497 297 464 242 q 431 186 355 151 q 279 117 272 104 q 305 111 324 111 q 378 111 417 77 q 456 44 456 -8 q 456 -103 389 -154 q 322 -205 196 -205 q 148 -205 92 -187 q 36 -168 0 -141 l 53 -48 q 123 -98 198 -98 q 334 -98 334 -25 q 334 -9 320 1 q 306 11 278 17 l 185 33 q 132 49 132 94 q 132 120 175 146 q 123 161 89 203 q 56 245 56 296 q 56 401 125 467 q 195 533 305 533 q 372 533 418 504 l 464 554 l 536 482 z m 180 307 q 180 268 197 243 q 215 218 246 218 q 299 218 334 260 q 370 303 370 364 q 370 433 298 433 q 244 433 212 398 q 180 362 180 307 z"},"j":{"x_min":0,"x_max":388,"ha":388,"o":"m 217 690 q 217 723 240 745 q 263 767 296 767 q 330 767 353 745 q 376 723 376 690 q 376 657 353 635 q 329 613 296 613 q 264 613 240 635 q 217 657 217 690 z m 250 7 q 230 -101 157 -153 q 83 -205 -71 -205 l -65 -97 q 3 -97 40 -88 q 77 -79 99 -54 q 122 -30 129 10 l 203 425 l 133 425 l 156 523 l 346 523 z"},"i":{"x_min":0,"x_max":327,"ha":327,"o":"m 158 691 q 158 724 181 745 q 204 767 237 767 q 270 767 293 745 q 317 724 317 691 q 317 659 293 637 q 270 615 237 615 q 205 615 181 636 q 158 658 158 691 z m 194 0 l 70 0 l 149 425 l 82 425 l 103 523 l 292 523 z"},"y":{"x_min":0,"x_max":564,"ha":564,"o":"m 303 -52 q 230 -204 21 -205 l 21 -87 q 159 -87 198 2 l 223 61 q 156 80 133 201 l 71 523 l 199 523 q 256 179 272 164 l 440 523 l 578 523 z"},"@":{"x_min":0,"x_max":771,"ha":771,"o":"m 442 150 q 397 106 333 106 q 274 106 238 139 q 202 172 202 230 q 202 326 268 399 q 335 471 430 471 q 479 471 566 434 q 533 312 528 280 q 524 249 524 227 q 524 192 549 192 q 601 192 631 247 q 662 302 662 375 q 662 463 604 516 q 545 569 454 569 q 311 569 220 469 q 129 369 129 219 q 129 120 190 59 q 252 -2 351 -2 q 403 -2 454 15 q 505 32 532 60 l 589 -10 q 545 -46 475 -68 q 405 -90 340 -90 q 203 -90 116 -8 q 29 75 29 208 q 29 401 152 529 q 275 657 464 657 q 599 657 680 586 q 762 515 762 391 q 762 280 700 196 q 639 112 542 112 q 478 112 442 150 z m 427 396 q 377 396 343 345 q 309 294 309 236 q 309 189 349 189 q 384 189 407 215 q 430 240 438 279 q 447 318 459 384 q 445 396 427 396 z"},".":{"x_min":0,"x_max":367,"ha":367,"o":"m 100 68 q 100 100 122 123 q 145 146 177 146 q 209 146 232 123 q 255 100 255 68 q 255 36 232 13 q 209 -10 177 -10 q 145 -10 122 13 q 100 36 100 68 z"},"p":{"x_min":0,"x_max":599,"ha":599,"o":"m 149 14 l 110 -205 l -12 -205 l 93 361 q 99 393 99 424 q 99 467 90 511 l 209 532 q 216 514 221 482 q 289 533 355 533 q 565 533 565 330 q 565 181 479 85 q 393 -10 252 -10 q 196 -10 149 14 z m 168 118 q 192 93 239 93 q 335 93 386 152 q 437 210 437 317 q 437 367 406 397 q 375 427 322 427 q 298 427 265 411 q 233 396 217 376 z"},"X":{"x_min":0,"x_max":657,"ha":657,"o":"m 414 362 l 583 0 l 442 0 l 329 252 l 137 0 l -11 0 l 276 377 l 140 716 l 271 715 l 363 477 l 556 715 l 704 715 z"},"*":{"x_min":0,"x_max":432,"ha":432,"o":"m 382 538 l 317 533 l 384 495 l 426 440 l 332 370 l 291 430 l 265 492 l 240 437 l 186 370 l 102 445 l 160 501 l 214 529 l 148 535 l 72 565 l 120 666 l 197 633 l 231 596 l 205 671 l 205 737 l 320 737 l 320 673 l 298 594 l 347 638 l 416 668 l 456 570 z"},"Y":{"x_min":0,"x_max":684,"ha":684,"o":"m 414 316 l 356 0 l 230 0 l 289 320 l 121 715 l 253 715 l 368 436 l 583 715 l 728 715 z"},"c":{"x_min":0,"x_max":493,"ha":493,"o":"m 453 394 q 401 431 349 431 q 265 431 214 368 q 163 306 163 211 q 163 163 192 128 q 221 93 266 93 q 332 93 420 149 l 405 21 q 331 -10 251 -10 q 152 -10 94 45 q 37 100 37 196 q 37 342 121 438 q 206 533 342 533 q 420 533 478 500 z"},"!":{"x_min":0,"x_max":367,"ha":367,"o":"m 216 207 l 151 207 l 156 343 q 158 396 163 442 q 167 488 174 523 l 212 728 l 357 728 l 329 567 q 323 529 279 397 z m 80 69 q 80 102 104 125 q 128 147 161 147 q 194 147 219 125 q 243 102 243 69 q 243 36 219 13 q 195 -10 161 -10 q 127 -10 104 13 q 80 36 80 69 z"},"/":{"x_min":0,"x_max":397,"ha":397,"o":"m 110 0 l -5 0 l 267 718 l 381 718 z"},"[":{"x_min":0,"x_max":485,"ha":485,"o":"m 451 624 l 322 624 l 192 -92 l 320 -92 l 299 -205 l 34 -205 l 206 737 l 472 737 z"},"6":{"x_min":0,"x_max":586,"ha":586,"o":"m 454 730 l 512 654 q 458 634 389 574 q 319 515 269 449 q 303 460 343 460 q 432 460 483 412 q 535 364 535 280 q 535 159 457 73 q 380 -12 265 -12 q 57 -12 57 199 q 57 373 184 534 q 311 696 454 730 z m 186 185 q 186 100 272 100 q 330 100 366 148 q 403 197 403 261 q 403 301 382 325 q 360 348 322 348 q 258 348 222 303 q 186 259 186 185 z"},"r":{"x_min":0,"x_max":447,"ha":447,"o":"m 424 399 q 381 431 348 431 q 300 431 261 390 q 222 349 211 295 l 156 0 l 34 0 l 131 523 l 254 523 l 246 478 q 311 533 389 533 q 409 533 461 523 z"},"2":{"x_min":0,"x_max":586,"ha":586,"o":"m 252 117 l 508 117 l 486 0 l 21 0 l 21 41 l 305 375 q 372 453 385 472 q 397 490 406 513 q 414 535 414 555 q 414 620 317 620 q 257 620 206 546 l 116 606 q 172 728 329 728 q 428 728 487 684 q 545 641 545 560 q 545 511 517 458 q 488 404 409 308 z"},"{":{"x_min":0,"x_max":485,"ha":485,"o":"m 496 638 l 422 639 q 358 639 337 614 q 315 588 315 535 q 315 519 319 489 q 323 458 323 443 q 323 345 205 277 q 275 236 275 171 q 275 135 242 65 q 208 -5 208 -42 q 208 -106 317 -106 l 340 -106 l 360 -106 l 343 -205 l 260 -205 q 180 -205 127 -170 q 74 -134 74 -71 q 74 -27 113 54 q 151 136 151 178 q 151 235 62 241 l 75 311 q 197 319 197 438 q 197 458 193 495 q 188 532 188 551 q 188 634 255 684 q 322 733 421 733 l 514 733 z"},"9":{"x_min":0,"x_max":586,"ha":586,"o":"m 154 -14 l 96 62 q 154 83 228 147 q 302 211 339 267 q 307 256 264 256 q 182 256 128 310 q 73 363 73 445 q 73 573 146 651 q 220 728 343 728 q 441 728 496 669 q 551 610 551 507 q 551 340 433 187 q 315 33 154 -14 z m 205 455 q 205 368 285 368 q 351 368 386 412 q 421 456 421 531 q 421 616 336 616 q 275 616 240 571 q 205 525 205 455 z"}," ":{"x_min":0,"x_max":301,"ha":301,"o":""},"I":{"x_min":0,"x_max":278,"ha":278,"o":"m 161 0 l 33 0 l 165 715 l 292 715 z"},"H":{"x_min":0,"x_max":678,"ha":678,"o":"m 567 0 l 439 0 l 500 333 l 216 333 l 155 0 l 26 0 l 157 715 l 286 715 l 235 439 l 520 439 l 570 715 l 700 715 z"},"4":{"x_min":0,"x_max":586,"ha":586,"o":"m 481 291 l 553 291 l 534 186 l 462 186 l 428 0 l 295 0 l 330 186 l 9 186 l 23 263 l 499 718 l 560 718 z m 199 291 l 349 291 l 381 464 z"},"~":{"x_min":0,"x_max":586,"ha":586,"o":"m 159 234 l 88 234 q 98 292 126 328 q 154 364 195 364 q 219 364 242 359 q 266 354 338 332 q 358 327 374 327 q 403 327 417 364 l 489 364 q 470 292 444 263 q 417 234 376 234 q 353 234 329 239 q 305 244 259 258 q 212 271 203 271 q 177 271 159 234 z"},"D":{"x_min":0,"x_max":632,"ha":632,"o":"m 194 0 l 21 0 l 151 714 q 223 727 285 727 q 449 727 538 652 q 627 577 627 436 q 627 237 509 118 q 391 0 194 0 z m 257 611 l 170 114 q 192 112 209 112 q 340 112 417 204 q 495 296 495 441 q 495 520 441 568 q 388 616 305 616 q 281 616 257 611 z"},"^":{"x_min":0,"x_max":586,"ha":586,"o":"m 433 443 l 329 618 l 222 441 l 128 441 l 303 718 l 355 718 l 529 443 z"},"0":{"x_min":0,"x_max":586,"ha":586,"o":"m 44 210 q 44 434 133 581 q 221 728 381 728 q 578 728 578 516 q 578 273 493 132 q 409 -10 245 -10 q 149 -10 97 49 q 44 107 44 210 z m 176 228 q 176 102 252 102 q 346 102 396 219 q 446 336 446 507 q 446 616 365 616 q 279 616 228 491 q 176 367 176 228 z"},"F":{"x_min":0,"x_max":585,"ha":585,"o":"m 605 604 l 261 604 l 231 439 l 483 439 l 463 333 l 211 333 l 150 0 l 20 0 l 153 715 l 626 715 z"},"`":{"x_min":0,"x_max":586,"ha":586,"o":"m 311 627 l 236 790 l 373 790 l 390 627 z"},"k":{"x_min":0,"x_max":540,"ha":540,"o":"m 373 0 l 207 215 l 187 198 l 152 0 l 29 0 l 157 737 l 277 737 l 214 349 l 307 429 q 401 511 432 554 l 517 480 q 496 454 301 283 l 517 0 z"},"u":{"x_min":0,"x_max":557,"ha":557,"o":"m 453 0 l 331 0 l 338 38 q 273 -10 174 -10 q 107 -10 69 29 q 30 67 30 136 q 30 157 36 186 l 99 523 l 223 523 l 161 191 q 157 170 157 155 q 157 92 228 92 q 286 92 325 130 q 365 167 375 221 l 428 523 l 551 523 z"},"]":{"x_min":0,"x_max":485,"ha":485,"o":"m 270 -205 l 4 -205 l 25 -92 l 153 -92 l 284 624 l 155 624 l 176 737 l 442 737 z"},"U":{"x_min":0,"x_max":662,"ha":662,"o":"m 594 220 q 574 110 492 49 q 410 -12 289 -12 q 188 -12 124 36 q 60 85 60 170 q 60 196 65 226 l 155 715 l 286 715 l 195 228 q 192 215 192 200 q 192 152 222 125 q 252 99 303 99 q 369 99 412 135 q 456 170 467 235 l 557 715 l 686 715 z"},"o":{"x_min":0,"x_max":570,"ha":570,"o":"m 35 196 q 35 337 122 435 q 208 533 340 533 q 441 533 496 480 q 551 428 551 331 q 551 187 465 88 q 380 -10 245 -10 q 146 -10 90 43 q 35 96 35 196 z m 162 202 q 162 90 258 90 q 334 90 379 160 q 423 231 423 328 q 423 433 327 433 q 252 433 207 364 q 162 294 162 202 z"},"N":{"x_min":0,"x_max":660,"ha":660,"o":"m 543 -10 l 494 -10 l 230 453 l 151 0 l 25 0 l 157 715 l 215 715 l 474 272 l 551 715 l 677 715 z"},"+":{"x_min":0,"x_max":586,"ha":586,"o":"m 348 261 l 348 88 l 250 88 l 250 261 l 80 261 l 80 359 l 250 359 l 250 527 l 348 527 l 348 359 l 519 359 l 519 261 z"},"G":{"x_min":0,"x_max":676,"ha":676,"o":"m 588 65 q 478 -12 318 -12 q 195 -12 118 67 q 41 146 41 267 q 41 479 158 603 q 275 728 477 728 q 586 728 639 679 l 601 573 q 529 616 458 616 q 329 616 251 522 q 173 427 173 285 q 173 197 221 148 q 270 99 354 99 q 423 99 476 138 l 501 279 l 402 279 l 422 386 l 647 386 z"},"q":{"x_min":0,"x_max":599,"ha":599,"o":"m 433 -205 l 310 -205 l 352 26 q 299 -10 227 -10 q 132 -10 78 43 q 24 96 24 190 q 24 336 113 435 q 202 533 342 533 q 372 533 410 519 q 449 506 466 487 q 477 504 492 512 q 507 521 522 522 q 536 523 582 523 q 555 456 537 358 z m 369 120 l 421 401 q 392 430 344 430 q 258 430 205 367 q 153 305 153 212 q 153 156 185 125 q 216 93 272 93 q 330 93 369 120 z"},"d":{"x_min":0,"x_max":593,"ha":593,"o":"m 473 0 l 352 0 l 361 49 q 320 -10 227 -10 q 135 -10 83 44 q 31 98 31 191 q 31 341 115 437 q 198 533 337 533 q 363 533 396 522 q 429 512 443 500 l 488 737 l 606 737 z m 345 430 q 261 430 211 368 q 161 306 161 210 q 161 91 259 91 q 366 91 397 261 l 421 386 q 397 430 345 430 z"},"1":{"x_min":0,"x_max":586,"ha":586,"o":"m 342 0 l 210 0 l 303 500 l 160 430 l 179 560 q 353 637 417 718 l 475 718 z"},"5":{"x_min":0,"x_max":586,"ha":586,"o":"m 547 606 l 284 606 l 262 486 q 295 499 335 499 q 412 499 467 449 q 523 400 523 325 q 523 -10 213 -10 q 112 -10 48 52 l 103 165 q 125 139 161 120 q 196 102 227 102 q 303 102 348 160 q 393 217 393 302 q 393 346 364 371 q 334 396 287 396 q 223 396 171 341 l 117 366 l 178 718 l 568 718 z"}}}
